<svg width="1308" height="1024" viewBox="0 0 1308 1024" fill="none" xmlns="http://www.w3.org/2000/svg">
<path d="M353.204 0.103549C353.924 -0.0352925 354.796 -0.0337381 355.812 0.103549L1311 0.103548V1024H0.447715C-1.71904 990.253 -5.5323 869.087 240.728 694.338C486.989 519.59 465.139 561.227 627.646 443.028C786.842 327.236 404.667 6.70596 355.812 0.103549H353.204Z" fill="#FFD670"/>
<path d="M498.136 545.96C492.824 545.96 488.248 544.872 484.408 542.696C480.632 540.456 477.784 537.448 475.864 533.672C473.944 529.896 472.984 525.704 472.984 521.096C472.984 516.424 473.944 512.2 475.864 508.424C477.784 504.584 480.664 501.576 484.504 499.4C488.344 497.16 493.016 496.04 498.52 496.04C503.448 496.04 507.736 497.064 511.384 499.112L510.424 508.712C506.968 506.92 503.384 506.024 499.672 506.024C495.128 506.024 491.576 507.4 489.016 510.152C486.456 512.904 485.176 516.552 485.176 521.096C485.176 525.448 486.488 529.064 489.112 531.944C491.736 534.76 495.224 536.168 499.576 536.168C503.224 536.168 506.872 535.112 510.52 533L511.576 543.08C509.848 543.976 507.8 544.68 505.432 545.192C503.128 545.704 500.696 545.96 498.136 545.96ZM540.969 545.96C535.913 545.96 531.529 544.84 527.817 542.6C524.105 540.36 521.257 537.352 519.273 533.576C517.289 529.8 516.297 525.64 516.297 521.096C516.297 516.552 517.289 512.36 519.273 508.52C521.257 504.68 524.105 501.64 527.817 499.4C531.529 497.16 535.913 496.04 540.969 496.04C546.025 496.04 550.409 497.16 554.121 499.4C557.833 501.64 560.681 504.68 562.665 508.52C564.649 512.36 565.641 516.552 565.641 521.096C565.641 525.64 564.649 529.8 562.665 533.576C560.681 537.352 557.833 540.36 554.121 542.6C550.409 544.84 546.025 545.96 540.969 545.96ZM540.969 536.168C544.873 536.168 547.913 534.792 550.089 532.04C552.329 529.288 553.449 525.64 553.449 521.096C553.449 516.488 552.329 512.808 550.089 510.056C547.913 507.24 544.873 505.832 540.969 505.832C537.065 505.832 533.993 507.24 531.753 510.056C529.577 512.808 528.489 516.488 528.489 521.096C528.489 525.64 529.577 529.288 531.753 532.04C533.993 534.792 537.065 536.168 540.969 536.168ZM573.927 497H585.063L585.351 502.088C586.759 500.488 588.551 499.08 590.727 497.864C592.967 496.648 595.303 496.04 597.735 496.04C598.503 496.04 599.207 496.104 599.847 496.232L598.983 507.944C597.767 507.624 596.391 507.464 594.855 507.464C592.871 507.464 591.047 507.944 589.383 508.904C587.719 509.8 586.535 510.92 585.831 512.264V545H573.927V497ZM626.563 545.96C621.507 545.96 617.123 544.84 613.411 542.6C609.699 540.36 606.851 537.352 604.867 533.576C602.883 529.8 601.891 525.64 601.891 521.096C601.891 516.552 602.883 512.36 604.867 508.52C606.851 504.68 609.699 501.64 613.411 499.4C617.123 497.16 621.507 496.04 626.563 496.04C631.619 496.04 636.003 497.16 639.715 499.4C643.427 501.64 646.275 504.68 648.259 508.52C650.243 512.36 651.235 516.552 651.235 521.096C651.235 525.64 650.243 529.8 648.259 533.576C646.275 537.352 643.427 540.36 639.715 542.6C636.003 544.84 631.619 545.96 626.563 545.96ZM626.563 536.168C630.467 536.168 633.507 534.792 635.683 532.04C637.923 529.288 639.043 525.64 639.043 521.096C639.043 516.488 637.923 512.808 635.683 510.056C633.507 507.24 630.467 505.832 626.563 505.832C622.659 505.832 619.587 507.24 617.347 510.056C615.171 512.808 614.083 516.488 614.083 521.096C614.083 525.64 615.171 529.288 617.347 532.04C619.587 534.792 622.659 536.168 626.563 536.168ZM683.713 496.232C689.665 496.232 694.177 498.216 697.249 502.184C700.321 506.152 701.857 511.496 701.857 518.216V545H689.953V519.176C689.953 514.696 689.185 511.4 687.649 509.288C686.177 507.112 683.777 506.024 680.449 506.024C676.801 506.024 673.793 507.4 671.425 510.152V545H659.521V497H670.657L670.849 500.36C674.881 497.608 679.169 496.232 683.713 496.232ZM722.857 545.96C718.889 545.96 715.561 544.68 712.873 542.12C710.249 539.496 708.937 535.976 708.937 531.56C708.937 527.4 710.441 524.072 713.449 521.576C716.457 519.016 720.009 517.224 724.105 516.2C728.201 515.112 732.137 514.504 735.913 514.376C735.785 511.56 735.049 509.544 733.705 508.328C732.425 507.112 730.281 506.504 727.273 506.504C725.161 506.504 723.081 506.792 721.033 507.368C719.049 507.944 716.745 508.872 714.121 510.152L713.065 500.456C718.889 497.64 724.713 496.232 730.537 496.232C736.169 496.232 740.457 497.768 743.401 500.84C746.409 503.912 747.913 508.808 747.913 515.528V528.488C747.913 530.92 748.009 532.68 748.201 533.768C748.457 534.792 748.841 535.464 749.353 535.784C749.929 536.04 750.857 536.168 752.137 536.168H753.673L752.617 545.96H748.297C745.673 545.96 743.465 545.48 741.673 544.52C739.881 543.496 738.505 542.12 737.545 540.392C736.009 542.12 733.897 543.496 731.209 544.52C728.585 545.48 725.801 545.96 722.857 545.96ZM727.849 536.84C729.065 536.84 730.441 536.552 731.977 535.976C733.513 535.336 734.857 534.472 736.009 533.384V522.44C732.169 522.632 728.777 523.464 725.833 524.936C722.889 526.408 721.417 528.456 721.417 531.08C721.417 533.064 721.929 534.536 722.953 535.496C723.977 536.392 725.609 536.84 727.849 536.84ZM759.15 531.944H771.63V545H759.15V531.944Z" fill="black"/>
<path d="M471.256 426H482.872L491.128 459.504L500.152 426.96H510.136L519.064 459.504L527.416 426H539.032L525.016 474H515.032L505.144 442.704L495.256 474H485.272L471.256 426ZM569.713 425.232C575.793 425.232 580.305 427.216 583.249 431.184C586.257 435.088 587.761 440.464 587.761 447.312V474H575.857V448.176C575.857 443.632 575.121 440.304 573.649 438.192C572.177 436.08 569.841 435.024 566.641 435.024C562.865 435.024 559.761 436.4 557.329 439.152V474H545.425V402H557.329V429.072C559.249 427.856 561.201 426.928 563.185 426.288C565.169 425.584 567.345 425.232 569.713 425.232ZM608.764 474.96C604.796 474.96 601.468 473.68 598.78 471.12C596.156 468.496 594.844 464.976 594.844 460.56C594.844 456.4 596.348 453.072 599.356 450.576C602.364 448.016 605.916 446.224 610.012 445.2C614.108 444.112 618.044 443.504 621.82 443.376C621.692 440.56 620.956 438.544 619.612 437.328C618.332 436.112 616.188 435.504 613.18 435.504C611.068 435.504 608.988 435.792 606.94 436.368C604.956 436.944 602.652 437.872 600.028 439.152L598.972 429.456C604.796 426.64 610.62 425.232 616.444 425.232C622.076 425.232 626.364 426.768 629.308 429.84C632.316 432.912 633.82 437.808 633.82 444.528V457.488C633.82 459.92 633.916 461.68 634.108 462.768C634.364 463.792 634.748 464.464 635.26 464.784C635.836 465.04 636.764 465.168 638.044 465.168H639.58L638.524 474.96H634.204C631.58 474.96 629.372 474.48 627.58 473.52C625.788 472.496 624.412 471.12 623.452 469.392C621.916 471.12 619.804 472.496 617.116 473.52C614.492 474.48 611.708 474.96 608.764 474.96ZM613.756 465.84C614.972 465.84 616.348 465.552 617.884 464.976C619.42 464.336 620.764 463.472 621.916 462.384V451.44C618.076 451.632 614.684 452.464 611.74 453.936C608.796 455.408 607.324 457.456 607.324 460.08C607.324 462.064 607.836 463.536 608.86 464.496C609.884 465.392 611.516 465.84 613.756 465.84ZM661.106 474.96C656.882 474.96 653.682 473.744 651.506 471.312C649.33 468.816 648.242 465.84 648.242 462.384V435.792H641.426L642.482 426H648.242V415.44L660.146 414.192V426H670.706V435.792H660.146V457.488C660.146 460.048 660.274 461.84 660.53 462.864C660.85 463.824 661.458 464.464 662.354 464.784C663.314 465.04 665.01 465.168 667.442 465.168H670.706L669.65 474.96H661.106ZM700.021 406.8H711.925V418.704H700.021V406.8ZM700.021 426H711.925V474H700.021V426ZM736.715 474.96C733.643 474.96 730.827 474.672 728.267 474.096C725.771 473.52 723.179 472.624 720.491 471.408L721.547 461.232C724.235 462.832 726.731 464.048 729.035 464.88C731.403 465.648 733.835 466.032 736.331 466.032C741.195 466.032 743.627 464.432 743.627 461.232C743.627 459.504 742.987 458.192 741.707 457.296C740.427 456.336 738.123 455.216 734.795 453.936C730.059 452.208 726.571 450.256 724.331 448.08C722.091 445.84 720.971 442.832 720.971 439.056C720.971 434.896 722.571 431.536 725.771 428.976C728.971 426.352 733.291 425.04 738.731 425.04C744.171 425.04 749.131 426.288 753.611 428.784L752.555 438.96C750.123 437.296 747.819 436.016 745.643 435.12C743.531 434.224 741.291 433.776 738.923 433.776C736.875 433.776 735.275 434.192 734.123 435.024C733.035 435.856 732.491 437.04 732.491 438.576C732.491 439.792 732.811 440.784 733.451 441.552C734.155 442.32 735.115 443.024 736.331 443.664C737.547 444.24 739.563 445.072 742.379 446.16C747.051 447.952 750.411 449.936 752.459 452.112C754.507 454.224 755.531 457.072 755.531 460.656C755.531 465.2 753.899 468.72 750.635 471.216C747.371 473.712 742.731 474.96 736.715 474.96Z" fill="black"/>
<rect x="541" y="356" width="161" height="25" rx="12.5" fill="#3156B7"/>
<g style="mix-blend-mode:screen">
<path d="M353.204 0.103549C353.924 -0.0352925 354.796 -0.0337381 355.812 0.103549L1311 0.103548V1024H0.447715C-1.71904 990.253 -5.5323 869.087 240.728 694.338C486.989 519.59 465.139 561.227 627.646 443.028C786.842 327.236 404.667 6.70596 355.812 0.103549H353.204Z" fill="#FFD670"/>
</g>
</svg>
