<svg width="1311" height="1024" viewBox="0 0 1311 1024" fill="none" xmlns="http://www.w3.org/2000/svg">
<path d="M353.204 1023.9C353.924 1024.04 354.796 1024.03 355.812 1023.9L1311 1023.9L1311 7.45905e-06L0.447717 0.000122031C-1.71903 33.7476 -5.53228 154.913 240.728 329.662C486.989 504.41 465.139 462.773 627.646 580.972C786.842 696.764 404.667 1017.29 355.812 1023.9L353.204 1023.9Z" fill="#FFD670"/>
<rect x="532" y="565" width="161" height="25" rx="12.5" fill="#3156B7"/>
<g style="mix-blend-mode:screen">
<path d="M353.204 1023.9C353.924 1024.04 354.796 1024.03 355.812 1023.9L1311 1023.9L1311 7.45905e-06L0.447717 0.000122031C-1.71903 33.7476 -5.53228 154.913 240.728 329.662C486.989 504.41 465.139 462.773 627.646 580.972C786.842 696.764 404.667 1017.29 355.812 1023.9L353.204 1023.9Z" fill="#FFD670"/>
</g>
</svg>
