<svg width="459" height="262" viewBox="0 0 459 262" fill="none" xmlns="http://www.w3.org/2000/svg">
<path d="M41.76 227.44C33.792 227.44 26.928 225.808 21.168 222.544C15.504 219.184 11.232 214.672 8.352 209.008C5.472 203.344 4.032 197.056 4.032 190.144C4.032 183.136 5.472 176.8 8.352 171.136C11.232 165.376 15.552 160.864 21.312 157.6C27.072 154.24 34.08 152.56 42.336 152.56C49.728 152.56 56.16 154.096 61.632 157.168L60.192 171.568C55.008 168.88 49.632 167.536 44.064 167.536C37.248 167.536 31.92 169.6 28.08 173.728C24.24 177.856 22.32 183.328 22.32 190.144C22.32 196.672 24.288 202.096 28.224 206.416C32.16 210.64 37.392 212.752 43.92 212.752C49.392 212.752 54.864 211.168 60.336 208L61.92 223.12C59.328 224.464 56.256 225.52 52.704 226.288C49.248 227.056 45.6 227.44 41.76 227.44ZM106.009 227.44C98.4248 227.44 91.8488 225.76 86.2808 222.4C80.7128 219.04 76.4408 214.528 73.4648 208.864C70.4888 203.2 69.0008 196.96 69.0008 190.144C69.0008 183.328 70.4888 177.04 73.4648 171.28C76.4408 165.52 80.7128 160.96 86.2808 157.6C91.8488 154.24 98.4248 152.56 106.009 152.56C113.593 152.56 120.169 154.24 125.737 157.6C131.305 160.96 135.577 165.52 138.553 171.28C141.529 177.04 143.017 183.328 143.017 190.144C143.017 196.96 141.529 203.2 138.553 208.864C135.577 214.528 131.305 219.04 125.737 222.4C120.169 225.76 113.593 227.44 106.009 227.44ZM106.009 212.752C111.865 212.752 116.425 210.688 119.689 206.56C123.049 202.432 124.729 196.96 124.729 190.144C124.729 183.232 123.049 177.712 119.689 173.584C116.425 169.36 111.865 167.248 106.009 167.248C100.153 167.248 95.5448 169.36 92.1848 173.584C88.9208 177.712 87.2888 183.232 87.2888 190.144C87.2888 196.96 88.9208 202.432 92.1848 206.56C95.5448 210.688 100.153 212.752 106.009 212.752ZM155.446 154H172.15L172.582 161.632C174.694 159.232 177.382 157.12 180.646 155.296C184.006 153.472 187.51 152.56 191.158 152.56C192.31 152.56 193.366 152.656 194.326 152.848L193.03 170.416C191.206 169.936 189.142 169.696 186.838 169.696C183.862 169.696 181.126 170.416 178.63 171.856C176.134 173.2 174.358 174.88 173.302 176.896V226H155.446V154ZM234.399 227.44C226.815 227.44 220.239 225.76 214.671 222.4C209.103 219.04 204.831 214.528 201.855 208.864C198.879 203.2 197.391 196.96 197.391 190.144C197.391 183.328 198.879 177.04 201.855 171.28C204.831 165.52 209.103 160.96 214.671 157.6C220.239 154.24 226.815 152.56 234.399 152.56C241.983 152.56 248.559 154.24 254.127 157.6C259.695 160.96 263.967 165.52 266.943 171.28C269.919 177.04 271.407 183.328 271.407 190.144C271.407 196.96 269.919 203.2 266.943 208.864C263.967 214.528 259.695 219.04 254.127 222.4C248.559 225.76 241.983 227.44 234.399 227.44ZM234.399 212.752C240.255 212.752 244.815 210.688 248.079 206.56C251.439 202.432 253.119 196.96 253.119 190.144C253.119 183.232 251.439 177.712 248.079 173.584C244.815 169.36 240.255 167.248 234.399 167.248C228.543 167.248 223.935 169.36 220.575 173.584C217.311 177.712 215.679 183.232 215.679 190.144C215.679 196.96 217.311 202.432 220.575 206.56C223.935 210.688 228.543 212.752 234.399 212.752ZM320.124 152.848C329.052 152.848 335.82 155.824 340.428 161.776C345.036 167.728 347.34 175.744 347.34 185.824V226H329.484V187.264C329.484 180.544 328.332 175.6 326.028 172.432C323.82 169.168 320.22 167.536 315.228 167.536C309.756 167.536 305.244 169.6 301.692 173.728V226H283.836V154H300.54L300.828 159.04C306.876 154.912 313.308 152.848 320.124 152.848ZM378.842 227.44C372.89 227.44 367.898 225.52 363.866 221.68C359.93 217.744 357.962 212.464 357.962 205.84C357.962 199.6 360.218 194.608 364.73 190.864C369.242 187.024 374.57 184.336 380.714 182.8C386.858 181.168 392.762 180.256 398.426 180.064C398.234 175.84 397.13 172.816 395.114 170.992C393.194 169.168 389.978 168.256 385.466 168.256C382.298 168.256 379.178 168.688 376.105 169.552C373.13 170.416 369.674 171.808 365.738 173.728L364.154 159.184C372.89 154.96 381.626 152.848 390.362 152.848C398.81 152.848 405.242 155.152 409.658 159.76C414.17 164.368 416.426 171.712 416.426 181.792V201.232C416.426 204.88 416.57 207.52 416.858 209.152C417.242 210.688 417.818 211.696 418.586 212.176C419.45 212.56 420.842 212.752 422.762 212.752H425.066L423.482 227.44H417.002C413.066 227.44 409.754 226.72 407.066 225.28C404.378 223.744 402.314 221.68 400.874 219.088C398.57 221.68 395.402 223.744 391.37 225.28C387.434 226.72 383.258 227.44 378.842 227.44ZM386.33 213.76C388.154 213.76 390.218 213.328 392.522 212.464C394.826 211.504 396.842 210.208 398.57 208.576V192.16C392.81 192.448 387.722 193.696 383.306 195.904C378.89 198.112 376.682 201.184 376.682 205.12C376.682 208.096 377.45 210.304 378.986 211.744C380.522 213.088 382.97 213.76 386.33 213.76ZM433.28 206.416H452V226H433.28V206.416Z" fill="black"/>
<path d="M1.44 67H18.864L31.248 117.256L44.784 68.44H59.76L73.152 117.256L85.68 67H103.104L82.08 139H67.104L52.272 92.056L37.44 139H22.464L1.44 67ZM149.124 65.848C158.244 65.848 165.012 68.824 169.428 74.776C173.94 80.632 176.196 88.696 176.196 98.968V139H158.34V100.264C158.34 93.448 157.236 88.456 155.028 85.288C152.82 82.12 149.316 80.536 144.516 80.536C138.852 80.536 134.196 82.6 130.548 86.728V139H112.692V31H130.548V71.608C133.428 69.784 136.356 68.392 139.332 67.432C142.308 66.376 145.572 65.848 149.124 65.848ZM207.701 140.44C201.749 140.44 196.757 138.52 192.725 134.68C188.789 130.744 186.821 125.464 186.821 118.84C186.821 112.6 189.077 107.608 193.589 103.864C198.101 100.024 203.429 97.336 209.573 95.8C215.717 94.168 221.621 93.256 227.285 93.064C227.093 88.84 225.989 85.816 223.973 83.992C222.053 82.168 218.837 81.256 214.325 81.256C211.157 81.256 208.037 81.688 204.965 82.552C201.989 83.416 198.533 84.808 194.597 86.728L193.013 72.184C201.749 67.96 210.485 65.848 219.221 65.848C227.669 65.848 234.101 68.152 238.517 72.76C243.029 77.368 245.285 84.712 245.285 94.792V114.232C245.285 117.88 245.429 120.52 245.717 122.152C246.101 123.688 246.677 124.696 247.445 125.176C248.309 125.56 249.701 125.752 251.621 125.752H253.925L252.341 140.44H245.861C241.925 140.44 238.613 139.72 235.925 138.28C233.237 136.744 231.173 134.68 229.733 132.088C227.429 134.68 224.261 136.744 220.229 138.28C216.293 139.72 212.117 140.44 207.701 140.44ZM215.189 126.76C217.013 126.76 219.077 126.328 221.381 125.464C223.685 124.504 225.701 123.208 227.429 121.576V105.16C221.669 105.448 216.581 106.696 212.165 108.904C207.749 111.112 205.541 114.184 205.541 118.12C205.541 121.096 206.309 123.304 207.845 124.744C209.381 126.088 211.829 126.76 215.189 126.76ZM286.215 140.44C279.879 140.44 275.079 138.616 271.815 134.968C268.551 131.224 266.919 126.76 266.919 121.576V81.688H256.695L258.279 67H266.919V51.16L284.775 49.288V67H300.615V81.688H284.775V114.232C284.775 118.072 284.967 120.76 285.351 122.296C285.831 123.736 286.743 124.696 288.087 125.176C289.527 125.56 292.071 125.752 295.719 125.752H300.615L299.031 140.44H286.215ZM344.586 38.2H362.442V56.056H344.586V38.2ZM344.586 67H362.442V139H344.586V67ZM399.628 140.44C395.02 140.44 390.796 140.008 386.956 139.144C383.212 138.28 379.324 136.936 375.292 135.112L376.876 119.848C380.908 122.248 384.652 124.072 388.108 125.32C391.66 126.472 395.308 127.048 399.052 127.048C406.348 127.048 409.996 124.648 409.996 119.848C409.996 117.256 409.036 115.288 407.116 113.944C405.196 112.504 401.74 110.824 396.748 108.904C389.644 106.312 384.412 103.384 381.052 100.12C377.692 96.76 376.012 92.248 376.012 86.584C376.012 80.344 378.412 75.304 383.212 71.464C388.012 67.528 394.492 65.56 402.652 65.56C410.812 65.56 418.252 67.432 424.972 71.176L423.388 86.44C419.74 83.944 416.284 82.024 413.02 80.68C409.852 79.336 406.492 78.664 402.94 78.664C399.868 78.664 397.468 79.288 395.74 80.536C394.108 81.784 393.292 83.56 393.292 85.864C393.292 87.688 393.772 89.176 394.732 90.328C395.788 91.48 397.228 92.536 399.052 93.496C400.876 94.36 403.9 95.608 408.124 97.24C415.132 99.928 420.172 102.904 423.244 106.168C426.316 109.336 427.852 113.608 427.852 118.984C427.852 125.8 425.404 131.08 420.508 134.824C415.612 138.568 408.652 140.44 399.628 140.44Z" fill="black"/>
</svg>
