<svg width="1622" height="310" viewBox="0 0 1622 310" fill="none" xmlns="http://www.w3.org/2000/svg">
<mask id="path-1-inside-1" fill="white">
<path d="M253.75 89.1151C236.409 99.127 223.755 115.618 218.573 134.959C213.39 154.301 216.103 174.909 226.115 192.25C236.127 209.591 252.618 222.245 271.959 227.427C291.301 232.61 311.909 229.897 329.25 219.885L307.392 182.026C300.092 186.241 291.416 187.383 283.274 185.202C275.131 183.02 268.189 177.693 263.974 170.392C259.759 163.092 258.617 154.416 260.798 146.274C262.98 138.131 268.307 131.189 275.608 126.974L253.75 89.1151Z"/>
</mask>
<path d="M253.75 89.1151C236.409 99.127 223.755 115.618 218.573 134.959C213.39 154.301 216.103 174.909 226.115 192.25C236.127 209.591 252.618 222.245 271.959 227.427C291.301 232.61 311.909 229.897 329.25 219.885L307.392 182.026C300.092 186.241 291.416 187.383 283.274 185.202C275.131 183.02 268.189 177.693 263.974 170.392C259.759 163.092 258.617 154.416 260.798 146.274C262.98 138.131 268.307 131.189 275.608 126.974L253.75 89.1151Z" stroke="url(#paint0_radial)" stroke-width="2" mask="url(#path-1-inside-1)"/>
<mask id="path-2-inside-2" fill="white">
<path d="M436.385 141.115C419.044 151.127 406.39 167.618 401.208 186.959C396.025 206.301 398.738 226.909 408.75 244.25C418.762 261.591 435.253 274.245 454.594 279.427C473.936 284.61 494.544 281.897 511.885 271.885L490.027 234.026C482.727 238.241 474.051 239.383 465.909 237.202C457.766 235.02 450.824 229.693 446.609 222.392C442.394 215.092 441.252 206.416 443.433 198.274C445.615 190.131 450.942 183.189 458.243 178.974L436.385 141.115Z"/>
</mask>
<path d="M436.385 141.115C419.044 151.127 406.39 167.618 401.208 186.959C396.025 206.301 398.738 226.909 408.75 244.25C418.762 261.591 435.253 274.245 454.594 279.427C473.936 284.61 494.544 281.897 511.885 271.885L490.027 234.026C482.727 238.241 474.051 239.383 465.909 237.202C457.766 235.02 450.824 229.693 446.609 222.392C442.394 215.092 441.252 206.416 443.433 198.274C445.615 190.131 450.942 183.189 458.243 178.974L436.385 141.115Z" stroke="url(#paint1_radial)" stroke-width="2" mask="url(#path-2-inside-2)"/>
<mask id="path-3-inside-3" fill="white">
<path d="M642.385 74.1151C625.044 84.127 612.39 100.618 607.208 119.959C602.025 139.301 604.738 159.909 614.75 177.25C624.762 194.591 641.253 207.245 660.594 212.427C679.936 217.61 700.544 214.897 717.885 204.885L696.027 167.026C688.727 171.241 680.051 172.383 671.909 170.202C663.766 168.02 656.824 162.693 652.609 155.392C648.394 148.092 647.252 139.416 649.433 131.274C651.615 123.131 656.942 116.189 664.243 111.974L642.385 74.1151Z"/>
</mask>
<path d="M642.385 74.1151C625.044 84.127 612.39 100.618 607.208 119.959C602.025 139.301 604.738 159.909 614.75 177.25C624.762 194.591 641.253 207.245 660.594 212.427C679.936 217.61 700.544 214.897 717.885 204.885L696.027 167.026C688.727 171.241 680.051 172.383 671.909 170.202C663.766 168.02 656.824 162.693 652.609 155.392C648.394 148.092 647.252 139.416 649.433 131.274C651.615 123.131 656.942 116.189 664.243 111.974L642.385 74.1151Z" stroke="url(#paint2_radial)" stroke-width="2" mask="url(#path-3-inside-3)"/>
<mask id="path-4-inside-4" fill="white">
<path d="M848.385 140.115C831.044 150.127 818.39 166.618 813.208 185.959C808.025 205.301 810.738 225.909 820.75 243.25C830.762 260.591 847.253 273.245 866.594 278.427C885.936 283.61 906.544 280.897 923.885 270.885L902.027 233.026C894.727 237.241 886.051 238.383 877.909 236.202C869.766 234.02 862.824 228.693 858.609 221.392C854.394 214.092 853.252 205.416 855.433 197.274C857.615 189.131 862.942 182.189 870.243 177.974L848.385 140.115Z"/>
</mask>
<path d="M848.385 140.115C831.044 150.127 818.39 166.618 813.208 185.959C808.025 205.301 810.738 225.909 820.75 243.25C830.762 260.591 847.253 273.245 866.594 278.427C885.936 283.61 906.544 280.897 923.885 270.885L902.027 233.026C894.727 237.241 886.051 238.383 877.909 236.202C869.766 234.02 862.824 228.693 858.609 221.392C854.394 214.092 853.252 205.416 855.433 197.274C857.615 189.131 862.942 182.189 870.243 177.974L848.385 140.115Z" stroke="url(#paint3_radial)" stroke-width="2" mask="url(#path-4-inside-4)"/>
<mask id="path-5-inside-5" fill="white">
<path d="M1054.38 73.1151C1037.04 83.127 1024.39 99.6176 1019.21 118.959C1014.02 138.301 1016.74 158.909 1026.75 176.25C1036.76 193.591 1053.25 206.245 1072.59 211.427C1091.94 216.61 1112.54 213.897 1129.88 203.885L1108.03 166.026C1100.73 170.241 1092.05 171.383 1083.91 169.202C1075.77 167.02 1068.82 161.693 1064.61 154.392C1060.39 147.092 1059.25 138.416 1061.43 130.274C1063.62 122.131 1068.94 115.189 1076.24 110.974L1054.38 73.1151Z"/>
</mask>
<path d="M1054.38 73.1151C1037.04 83.127 1024.39 99.6176 1019.21 118.959C1014.02 138.301 1016.74 158.909 1026.75 176.25C1036.76 193.591 1053.25 206.245 1072.59 211.427C1091.94 216.61 1112.54 213.897 1129.88 203.885L1108.03 166.026C1100.73 170.241 1092.05 171.383 1083.91 169.202C1075.77 167.02 1068.82 161.693 1064.61 154.392C1060.39 147.092 1059.25 138.416 1061.43 130.274C1063.62 122.131 1068.94 115.189 1076.24 110.974L1054.38 73.1151Z" stroke="url(#paint4_radial)" stroke-width="2" mask="url(#path-5-inside-5)"/>
<mask id="path-6-inside-6" fill="white">
<path d="M65.3849 141.115C48.0437 151.127 35.3901 167.618 30.2075 186.959C25.025 206.301 27.7381 226.909 37.75 244.25C47.7619 261.591 64.2525 274.245 83.5941 279.427C102.936 284.61 123.544 281.897 140.885 271.885L119.027 234.026C111.727 238.241 103.051 239.383 94.9085 237.202C86.7659 235.02 79.8236 229.693 75.6087 222.392C71.3938 215.092 70.2516 206.416 72.4334 198.274C74.6152 190.131 79.9422 183.189 87.2426 178.974L65.3849 141.115Z"/>
</mask>
<path d="M65.3849 141.115C48.0437 151.127 35.3901 167.618 30.2075 186.959C25.025 206.301 27.7381 226.909 37.75 244.25C47.7619 261.591 64.2525 274.245 83.5941 279.427C102.936 284.61 123.544 281.897 140.885 271.885L119.027 234.026C111.727 238.241 103.051 239.383 94.9085 237.202C86.7659 235.02 79.8236 229.693 75.6087 222.392C71.3938 215.092 70.2516 206.416 72.4334 198.274C74.6152 190.131 79.9422 183.189 87.2426 178.974L65.3849 141.115Z" stroke="url(#paint5_radial)" stroke-width="2" mask="url(#path-6-inside-6)"/>
<mask id="path-7-inside-7" fill="white">
<path d="M1252.38 139.115C1235.04 149.127 1222.39 165.618 1217.21 184.959C1212.02 204.301 1214.74 224.909 1224.75 242.25C1234.76 259.591 1251.25 272.245 1270.59 277.427C1289.94 282.61 1310.54 279.897 1327.88 269.885L1306.03 232.026C1298.73 236.241 1290.05 237.383 1281.91 235.202C1273.77 233.02 1266.82 227.693 1262.61 220.392C1258.39 213.092 1257.25 204.416 1259.43 196.274C1261.62 188.131 1266.94 181.189 1274.24 176.974L1252.38 139.115Z"/>
</mask>
<path d="M1252.38 139.115C1235.04 149.127 1222.39 165.618 1217.21 184.959C1212.02 204.301 1214.74 224.909 1224.75 242.25C1234.76 259.591 1251.25 272.245 1270.59 277.427C1289.94 282.61 1310.54 279.897 1327.88 269.885L1306.03 232.026C1298.73 236.241 1290.05 237.383 1281.91 235.202C1273.77 233.02 1266.82 227.693 1262.61 220.392C1258.39 213.092 1257.25 204.416 1259.43 196.274C1261.62 188.131 1266.94 181.189 1274.24 176.974L1252.38 139.115Z" stroke="url(#paint6_radial)" stroke-width="2" mask="url(#path-7-inside-7)"/>
<mask id="path-8-inside-8" fill="white">
<path d="M1450.38 38.1151C1433.04 48.127 1420.39 64.6176 1415.21 83.9592C1410.02 103.301 1412.74 123.909 1422.75 141.25C1432.76 158.591 1449.25 171.245 1468.59 176.427C1487.94 181.61 1508.54 178.897 1525.88 168.885L1504.03 131.026C1496.73 135.241 1488.05 136.383 1479.91 134.202C1471.77 132.02 1464.82 126.693 1460.61 119.392C1456.39 112.092 1455.25 103.416 1457.43 95.2735C1459.62 87.131 1464.94 80.1887 1472.24 75.9738L1450.38 38.1151Z"/>
</mask>
<path d="M1450.38 38.1151C1433.04 48.127 1420.39 64.6176 1415.21 83.9592C1410.02 103.301 1412.74 123.909 1422.75 141.25C1432.76 158.591 1449.25 171.245 1468.59 176.427C1487.94 181.61 1508.54 178.897 1525.88 168.885L1504.03 131.026C1496.73 135.241 1488.05 136.383 1479.91 134.202C1471.77 132.02 1464.82 126.693 1460.61 119.392C1456.39 112.092 1455.25 103.416 1457.43 95.2735C1459.62 87.131 1464.94 80.1887 1472.24 75.9738L1450.38 38.1151Z" stroke="url(#paint7_radial)" stroke-width="2" mask="url(#path-8-inside-8)"/>
<mask id="path-9-inside-9" fill="white">
<path d="M344.885 219.52C362.226 209.508 374.88 193.017 380.062 173.676C385.245 154.334 382.532 133.726 372.52 116.385C362.508 99.0438 346.017 86.3901 326.676 81.2075C307.334 76.025 286.726 78.7381 269.385 88.75L291.243 126.609C298.543 122.394 307.219 121.252 315.361 123.433C323.504 125.615 330.446 130.942 334.661 138.243C338.876 145.543 340.018 154.219 337.836 162.361C335.655 170.504 330.328 177.446 323.027 181.661L344.885 219.52Z"/>
</mask>
<path d="M344.885 219.52C362.226 209.508 374.88 193.017 380.062 173.676C385.245 154.334 382.532 133.726 372.52 116.385C362.508 99.0438 346.017 86.3901 326.676 81.2075C307.334 76.025 286.726 78.7381 269.385 88.75L291.243 126.609C298.543 122.394 307.219 121.252 315.361 123.433C323.504 125.615 330.446 130.942 334.661 138.243C338.876 145.543 340.018 154.219 337.836 162.361C335.655 170.504 330.328 177.446 323.027 181.661L344.885 219.52Z" stroke="url(#paint8_radial)" stroke-width="2" mask="url(#path-9-inside-9)"/>
<mask id="path-10-inside-10" fill="white">
<path d="M527.52 271.52C544.861 261.508 557.515 245.017 562.697 225.676C567.88 206.334 565.167 185.726 555.155 168.385C545.143 151.044 528.652 138.39 509.311 133.208C489.969 128.025 469.361 130.738 452.02 140.75L473.878 178.609C481.178 174.394 489.854 173.252 497.996 175.433C506.139 177.615 513.081 182.942 517.296 190.243C521.511 197.543 522.653 206.219 520.471 214.361C518.29 222.504 512.963 229.446 505.662 233.661L527.52 271.52Z"/>
</mask>
<path d="M527.52 271.52C544.861 261.508 557.515 245.017 562.697 225.676C567.88 206.334 565.167 185.726 555.155 168.385C545.143 151.044 528.652 138.39 509.311 133.208C489.969 128.025 469.361 130.738 452.02 140.75L473.878 178.609C481.178 174.394 489.854 173.252 497.996 175.433C506.139 177.615 513.081 182.942 517.296 190.243C521.511 197.543 522.653 206.219 520.471 214.361C518.29 222.504 512.963 229.446 505.662 233.661L527.52 271.52Z" stroke="url(#paint9_radial)" stroke-width="2" mask="url(#path-10-inside-10)"/>
<mask id="path-11-inside-11" fill="white">
<path d="M733.52 204.52C750.861 194.508 763.515 178.017 768.697 158.676C773.88 139.334 771.167 118.726 761.155 101.385C751.143 84.0438 734.652 71.3901 715.311 66.2075C695.969 61.025 675.361 63.7381 658.02 73.75L679.878 111.609C687.178 107.394 695.854 106.252 703.996 108.433C712.139 110.615 719.081 115.942 723.296 123.243C727.511 130.543 728.653 139.219 726.471 147.361C724.29 155.504 718.963 162.446 711.662 166.661L733.52 204.52Z"/>
</mask>
<path d="M733.52 204.52C750.861 194.508 763.515 178.017 768.697 158.676C773.88 139.334 771.167 118.726 761.155 101.385C751.143 84.0438 734.652 71.3901 715.311 66.2075C695.969 61.025 675.361 63.7381 658.02 73.75L679.878 111.609C687.178 107.394 695.854 106.252 703.996 108.433C712.139 110.615 719.081 115.942 723.296 123.243C727.511 130.543 728.653 139.219 726.471 147.361C724.29 155.504 718.963 162.446 711.662 166.661L733.52 204.52Z" stroke="url(#paint10_radial)" stroke-width="2" mask="url(#path-11-inside-11)"/>
<mask id="path-12-inside-12" fill="white">
<path d="M939.52 270.52C956.861 260.508 969.515 244.017 974.697 224.676C979.88 205.334 977.167 184.726 967.155 167.385C957.143 150.044 940.652 137.39 921.311 132.208C901.969 127.025 881.361 129.738 864.02 139.75L885.878 177.609C893.178 173.394 901.854 172.252 909.996 174.433C918.139 176.615 925.081 181.942 929.296 189.243C933.511 196.543 934.653 205.219 932.471 213.361C930.29 221.504 924.963 228.446 917.662 232.661L939.52 270.52Z"/>
</mask>
<path d="M939.52 270.52C956.861 260.508 969.515 244.017 974.697 224.676C979.88 205.334 977.167 184.726 967.155 167.385C957.143 150.044 940.652 137.39 921.311 132.208C901.969 127.025 881.361 129.738 864.02 139.75L885.878 177.609C893.178 173.394 901.854 172.252 909.996 174.433C918.139 176.615 925.081 181.942 929.296 189.243C933.511 196.543 934.653 205.219 932.471 213.361C930.29 221.504 924.963 228.446 917.662 232.661L939.52 270.52Z" stroke="url(#paint11_radial)" stroke-width="2" mask="url(#path-12-inside-12)"/>
<mask id="path-13-inside-13" fill="white">
<path d="M1145.52 203.52C1162.86 193.508 1175.51 177.017 1180.7 157.676C1185.88 138.334 1183.17 117.726 1173.15 100.385C1163.14 83.0438 1146.65 70.3901 1127.31 65.2075C1107.97 60.025 1087.36 62.7381 1070.02 72.75L1091.88 110.609C1099.18 106.394 1107.85 105.252 1116 107.433C1124.14 109.615 1131.08 114.942 1135.3 122.243C1139.51 129.543 1140.65 138.219 1138.47 146.361C1136.29 154.504 1130.96 161.446 1123.66 165.661L1145.52 203.52Z"/>
</mask>
<path d="M1145.52 203.52C1162.86 193.508 1175.51 177.017 1180.7 157.676C1185.88 138.334 1183.17 117.726 1173.15 100.385C1163.14 83.0438 1146.65 70.3901 1127.31 65.2075C1107.97 60.025 1087.36 62.7381 1070.02 72.75L1091.88 110.609C1099.18 106.394 1107.85 105.252 1116 107.433C1124.14 109.615 1131.08 114.942 1135.3 122.243C1139.51 129.543 1140.65 138.219 1138.47 146.361C1136.29 154.504 1130.96 161.446 1123.66 165.661L1145.52 203.52Z" stroke="url(#paint12_radial)" stroke-width="2" mask="url(#path-13-inside-13)"/>
<mask id="path-14-inside-14" fill="white">
<path d="M156.52 271.52C173.861 261.508 186.515 245.017 191.697 225.676C196.88 206.334 194.167 185.726 184.155 168.385C174.143 151.044 157.652 138.39 138.311 133.208C118.969 128.025 98.361 130.738 81.0198 140.75L102.878 178.609C110.178 174.394 118.854 173.252 126.996 175.433C135.139 177.615 142.081 182.942 146.296 190.243C150.511 197.543 151.653 206.219 149.471 214.361C147.29 222.504 141.963 229.446 134.662 233.661L156.52 271.52Z"/>
</mask>
<path d="M156.52 271.52C173.861 261.508 186.515 245.017 191.697 225.676C196.88 206.334 194.167 185.726 184.155 168.385C174.143 151.044 157.652 138.39 138.311 133.208C118.969 128.025 98.361 130.738 81.0198 140.75L102.878 178.609C110.178 174.394 118.854 173.252 126.996 175.433C135.139 177.615 142.081 182.942 146.296 190.243C150.511 197.543 151.653 206.219 149.471 214.361C147.29 222.504 141.963 229.446 134.662 233.661L156.52 271.52Z" stroke="url(#paint13_radial)" stroke-width="2" mask="url(#path-14-inside-14)"/>
<mask id="path-15-inside-15" fill="white">
<path d="M1343.52 269.52C1360.86 259.508 1373.51 243.017 1378.7 223.676C1383.88 204.334 1381.17 183.726 1371.15 166.385C1361.14 149.044 1344.65 136.39 1325.31 131.208C1305.97 126.025 1285.36 128.738 1268.02 138.75L1289.88 176.609C1297.18 172.394 1305.85 171.252 1314 173.433C1322.14 175.615 1329.08 180.942 1333.3 188.243C1337.51 195.543 1338.65 204.219 1336.47 212.361C1334.29 220.504 1328.96 227.446 1321.66 231.661L1343.52 269.52Z"/>
</mask>
<path d="M1343.52 269.52C1360.86 259.508 1373.51 243.017 1378.7 223.676C1383.88 204.334 1381.17 183.726 1371.15 166.385C1361.14 149.044 1344.65 136.39 1325.31 131.208C1305.97 126.025 1285.36 128.738 1268.02 138.75L1289.88 176.609C1297.18 172.394 1305.85 171.252 1314 173.433C1322.14 175.615 1329.08 180.942 1333.3 188.243C1337.51 195.543 1338.65 204.219 1336.47 212.361C1334.29 220.504 1328.96 227.446 1321.66 231.661L1343.52 269.52Z" stroke="url(#paint14_radial)" stroke-width="2" mask="url(#path-15-inside-15)"/>
<mask id="path-16-inside-16" fill="white">
<path d="M1541.52 168.52C1558.86 158.508 1571.51 142.017 1576.7 122.676C1581.88 103.334 1579.17 82.7261 1569.15 65.3849C1559.14 48.0438 1542.65 35.3901 1523.31 30.2075C1503.97 25.025 1483.36 27.7381 1466.02 37.75L1487.88 75.6087C1495.18 71.3938 1503.85 70.2516 1512 72.4334C1520.14 74.6152 1527.08 79.9422 1531.3 87.2426C1535.51 94.5431 1536.65 103.219 1534.47 111.361C1532.29 119.504 1526.96 126.446 1519.66 130.661L1541.52 168.52Z"/>
</mask>
<path d="M1541.52 168.52C1558.86 158.508 1571.51 142.017 1576.7 122.676C1581.88 103.334 1579.17 82.7261 1569.15 65.3849C1559.14 48.0438 1542.65 35.3901 1523.31 30.2075C1503.97 25.025 1483.36 27.7381 1466.02 37.75L1487.88 75.6087C1495.18 71.3938 1503.85 70.2516 1512 72.4334C1520.14 74.6152 1527.08 79.9422 1531.3 87.2426C1535.51 94.5431 1536.65 103.219 1534.47 111.361C1532.29 119.504 1526.96 126.446 1519.66 130.661L1541.52 168.52Z" stroke="url(#paint15_radial)" stroke-width="2" mask="url(#path-16-inside-16)"/>
<rect x="1622" y="241" width="1622" height="219" transform="rotate(-180 1622 241)" fill="url(#paint16_linear)"/>
<rect y="24" width="1622" height="219" fill="url(#paint17_linear)"/>
<defs>
<radialGradient id="paint0_radial" cx="0" cy="0" r="1" gradientUnits="userSpaceOnUse" gradientTransform="translate(291.5 154.5) rotate(-30) scale(75.5)">
<stop stop-color="#CCCCCD"/>
<stop offset="1" stop-color="#EBEBEB" stop-opacity="0.06"/>
</radialGradient>
<radialGradient id="paint1_radial" cx="0" cy="0" r="1" gradientUnits="userSpaceOnUse" gradientTransform="translate(474.135 206.5) rotate(-30) scale(75.5)">
<stop stop-color="#CCCCCD"/>
<stop offset="1" stop-color="#EBEBEB" stop-opacity="0.06"/>
</radialGradient>
<radialGradient id="paint2_radial" cx="0" cy="0" r="1" gradientUnits="userSpaceOnUse" gradientTransform="translate(680.135 139.5) rotate(-30) scale(75.5)">
<stop stop-color="#CCCCCD"/>
<stop offset="1" stop-color="#EBEBEB" stop-opacity="0.06"/>
</radialGradient>
<radialGradient id="paint3_radial" cx="0" cy="0" r="1" gradientUnits="userSpaceOnUse" gradientTransform="translate(886.135 205.5) rotate(-30) scale(75.5)">
<stop stop-color="#CCCCCD"/>
<stop offset="1" stop-color="#EBEBEB" stop-opacity="0.06"/>
</radialGradient>
<radialGradient id="paint4_radial" cx="0" cy="0" r="1" gradientUnits="userSpaceOnUse" gradientTransform="translate(1092.13 138.5) rotate(-30) scale(75.5)">
<stop stop-color="#CCCCCD"/>
<stop offset="1" stop-color="#EBEBEB" stop-opacity="0.06"/>
</radialGradient>
<radialGradient id="paint5_radial" cx="0" cy="0" r="1" gradientUnits="userSpaceOnUse" gradientTransform="translate(103.135 206.5) rotate(-30) scale(75.5)">
<stop stop-color="#CCCCCD"/>
<stop offset="1" stop-color="#EBEBEB" stop-opacity="0.06"/>
</radialGradient>
<radialGradient id="paint6_radial" cx="0" cy="0" r="1" gradientUnits="userSpaceOnUse" gradientTransform="translate(1290.13 204.5) rotate(-30) scale(75.5)">
<stop stop-color="#CCCCCD"/>
<stop offset="1" stop-color="#EBEBEB" stop-opacity="0.06"/>
</radialGradient>
<radialGradient id="paint7_radial" cx="0" cy="0" r="1" gradientUnits="userSpaceOnUse" gradientTransform="translate(1488.13 103.5) rotate(-30) scale(75.5)">
<stop stop-color="#CCCCCD"/>
<stop offset="1" stop-color="#EBEBEB" stop-opacity="0.06"/>
</radialGradient>
<radialGradient id="paint8_radial" cx="0" cy="0" r="1" gradientUnits="userSpaceOnUse" gradientTransform="translate(307.135 154.135) rotate(150) scale(75.5)">
<stop stop-color="#CCCCCD"/>
<stop offset="1" stop-color="#EBEBEB" stop-opacity="0.06"/>
</radialGradient>
<radialGradient id="paint9_radial" cx="0" cy="0" r="1" gradientUnits="userSpaceOnUse" gradientTransform="translate(489.77 206.135) rotate(150) scale(75.5)">
<stop stop-color="#CCCCCD"/>
<stop offset="1" stop-color="#EBEBEB" stop-opacity="0.06"/>
</radialGradient>
<radialGradient id="paint10_radial" cx="0" cy="0" r="1" gradientUnits="userSpaceOnUse" gradientTransform="translate(695.77 139.135) rotate(150) scale(75.5)">
<stop stop-color="#CCCCCD"/>
<stop offset="1" stop-color="#EBEBEB" stop-opacity="0.06"/>
</radialGradient>
<radialGradient id="paint11_radial" cx="0" cy="0" r="1" gradientUnits="userSpaceOnUse" gradientTransform="translate(901.77 205.135) rotate(150) scale(75.5)">
<stop stop-color="#CCCCCD"/>
<stop offset="1" stop-color="#EBEBEB" stop-opacity="0.06"/>
</radialGradient>
<radialGradient id="paint12_radial" cx="0" cy="0" r="1" gradientUnits="userSpaceOnUse" gradientTransform="translate(1107.77 138.135) rotate(150) scale(75.5)">
<stop stop-color="#CCCCCD"/>
<stop offset="1" stop-color="#EBEBEB" stop-opacity="0.06"/>
</radialGradient>
<radialGradient id="paint13_radial" cx="0" cy="0" r="1" gradientUnits="userSpaceOnUse" gradientTransform="translate(118.77 206.135) rotate(150) scale(75.5)">
<stop stop-color="#CCCCCD"/>
<stop offset="1" stop-color="#EBEBEB" stop-opacity="0.06"/>
</radialGradient>
<radialGradient id="paint14_radial" cx="0" cy="0" r="1" gradientUnits="userSpaceOnUse" gradientTransform="translate(1305.77 204.135) rotate(150) scale(75.5)">
<stop stop-color="#CCCCCD"/>
<stop offset="1" stop-color="#EBEBEB" stop-opacity="0.06"/>
</radialGradient>
<radialGradient id="paint15_radial" cx="0" cy="0" r="1" gradientUnits="userSpaceOnUse" gradientTransform="translate(1503.77 103.135) rotate(150) scale(75.5)">
<stop stop-color="#CCCCCD"/>
<stop offset="1" stop-color="#EBEBEB" stop-opacity="0.06"/>
</radialGradient>
<linearGradient id="paint16_linear" x1="1622" y1="350" x2="3235.5" y2="350" gradientUnits="userSpaceOnUse">
<stop stop-color="#24292E"/>
<stop offset="1" stop-color="#24292E" stop-opacity="0"/>
</linearGradient>
<linearGradient id="paint17_linear" x1="9.67829e-06" y1="133" x2="1613.5" y2="133" gradientUnits="userSpaceOnUse">
<stop stop-color="#24292E"/>
<stop offset="1" stop-color="#24292E" stop-opacity="0"/>
</linearGradient>
</defs>
</svg>
